<svg xmlns="http://www.w3.org/2000/svg" width="64" height="64" viewBox="0 0 64 64" fill="none"><ellipse cx="32" cy="31.5762" rx="32" ry="31.5762" fill="#001A29"></ellipse><path d="M26.8 47.4347V41.8595L22.5611 34.9173C20.6773 31.8358 22.4227 31.8884 23.1983 31.8884V31.5667H16.106V31.8884C16.9925 31.942 17.7682 31.942 18.9873 33.9791C18.9873 33.9791 20.1508 35.7482 24.2234 42.7172V47.4347C24.2234 49.6059 23.3092 50.0884 22.1453 50.0884V50.4364H28.9056V50.088C27.7419 50.0884 26.8 49.6059 26.8 47.4347Z" fill="white"></path><path d="M45.6223 29.4896C45.6223 29.4896 42.1869 21.0194 38.7792 13.1391H38.5021L37.1999 16.4896L41.0509 25.9513H41.0498L41.3477 26.6912L42.1315 28.6318C42.7963 30.1327 43.0734 31.6607 41.5774 31.6607V32.0091H47.8941V31.6607C47.1183 31.607 46.5366 31.6338 45.6223 29.4896Z" fill="white"></path><path d="M33.8673 26.7069L33.5461 26.0851C33.2439 26.8478 32.9712 27.5056 32.7226 28.0731C32.1056 29.421 31.046 31.3049 28.4626 31.5679H27.4927V31.9165C31.2604 31.9165 29.6537 35.5616 28.7116 37.438L28.961 37.7596C29.7025 36.3504 30.3443 35.2813 30.9085 34.4698C31.9827 33.2259 33.5721 32.0102 35.7416 32.0102H35.897V31.6607C32.2837 31.7613 33.1107 28.8393 33.8673 26.7069Z" fill="white"></path></svg>