<svg xmlns="http://www.w3.org/2000/svg" width="217" height="64" viewBox="0 0 217 64" fill="none"><ellipse cx="32" cy="31.5762" rx="32" ry="31.5762" fill="#001A29"></ellipse><path d="M26.8 47.4347V41.8595L22.5611 34.9173C20.6773 31.8358 22.4227 31.8884 23.1983 31.8884V31.5667H16.106V31.8884C16.9925 31.942 17.7682 31.942 18.9873 33.9791C18.9873 33.9791 20.1508 35.7482 24.2234 42.7172V47.4347C24.2234 49.6059 23.3092 50.0884 22.1453 50.0884V50.4364H28.9056V50.088C27.7419 50.0884 26.8 49.6059 26.8 47.4347Z" fill="white"></path><path d="M45.6223 29.4896C45.6223 29.4896 42.1869 21.0194 38.7792 13.1391H38.5021L37.1999 16.4896L41.0509 25.9513H41.0498L41.3477 26.6912L42.1315 28.6318C42.7963 30.1327 43.0734 31.6607 41.5774 31.6607V32.0091H47.8941V31.6607C47.1183 31.607 46.5366 31.6338 45.6223 29.4896Z" fill="white"></path><path d="M33.8673 26.7069L33.5461 26.0851C33.2439 26.8478 32.9712 27.5056 32.7226 28.0731C32.1056 29.421 31.046 31.3049 28.4626 31.5679H27.4927V31.9165C31.2604 31.9165 29.6537 35.5616 28.7116 37.438L28.961 37.7596C29.7025 36.3504 30.3443 35.2813 30.9085 34.4698C31.9827 33.2259 33.5721 32.0102 35.7416 32.0102H35.897V31.6607C32.2837 31.7613 33.1107 28.8393 33.8673 26.7069Z" fill="white"></path><path d="M82.048 20.7922L78.16 14.1202H79.456L82.288 19.0642C82.416 19.3042 82.512 19.4962 82.624 19.7522C82.768 19.4642 82.768 19.4642 82.976 19.0642L85.776 14.1202H87.04L83.2 20.7922V25.5762H82.048V20.7922ZM93.9071 14.1202V25.5762H92.7551V14.1202H93.9071ZM102.005 25.5762H100.853V14.1202H102.021L108.325 23.6562V14.1202H109.461V25.5762H108.325L102.005 16.0402V25.5762ZM117.571 14.1202V21.0162L123.091 14.1202H124.467L120.579 18.9682L124.531 25.5762H123.187L119.827 19.9282L117.571 22.7282V25.5762H116.419V14.1202H117.571ZM130.438 25.5762H129.27L133.478 14.1202H134.902L139.158 25.5762H137.958L136.838 22.5362H131.558L130.438 25.5762ZM134.038 15.7362L131.91 21.5282H136.47L134.326 15.7362C134.278 15.5762 134.198 15.3842 134.182 15.2722C134.166 15.3682 134.102 15.5762 134.038 15.7362ZM79.392 49.5762H78.224L82.432 38.1202H83.856L88.112 49.5762H86.912L85.792 46.5362H80.512L79.392 49.5762ZM82.992 39.7362L80.864 45.5282H85.424L83.28 39.7362C83.232 39.5762 83.152 39.3842 83.136 39.2722C83.12 39.3682 83.056 39.5762 82.992 39.7362ZM97.3525 49.5762H93.8645V38.1202H97.3205C100.777 38.1202 103.081 40.4242 103.081 43.8482C103.081 47.2722 100.793 49.5762 97.3525 49.5762ZM97.2725 39.1762H95.0165V48.5202H97.3045C100.105 48.5202 101.897 46.6962 101.897 43.8482C101.897 40.9842 100.105 39.1762 97.2725 39.1762ZM116.185 49.5762H109.321V38.1202H116.169V39.1762H110.473V43.3042H115.641V44.3442H110.473V48.5202H116.185V49.5762ZM121.996 41.0962C121.996 39.1762 123.532 37.9122 125.836 37.9122C127.9 37.9122 129.26 39.0642 129.436 40.9842H128.268C128.141 39.6882 127.26 38.9522 125.82 38.9522C124.204 38.9522 123.148 39.7842 123.148 41.0802C123.148 42.0882 123.74 42.7282 124.94 43.0322L126.908 43.5122C128.701 43.9442 129.628 44.9682 129.628 46.5202C129.628 48.5042 128.092 49.7682 125.724 49.7682C123.5 49.7682 121.996 48.6002 121.852 46.7282H123.036C123.1 47.9282 124.156 48.7122 125.724 48.7122C127.405 48.7122 128.477 47.8962 128.477 46.5842C128.477 45.5602 127.9 44.8882 126.668 44.6002L124.732 44.1202C122.94 43.6882 121.996 42.6642 121.996 41.0962ZM142.724 49.5762H135.86V38.1202H142.708V39.1762H137.012V43.3042H142.18V44.3442H137.012V48.5202H142.724V49.5762ZM148.535 41.0962C148.535 39.1762 150.071 37.9122 152.375 37.9122C154.439 37.9122 155.799 39.0642 155.975 40.9842H154.807C154.679 39.6882 153.799 38.9522 152.359 38.9522C150.743 38.9522 149.687 39.7842 149.687 41.0802C149.687 42.0882 150.279 42.7282 151.479 43.0322L153.447 43.5122C155.239 43.9442 156.167 44.9682 156.167 46.5202C156.167 48.5042 154.631 49.7682 152.263 49.7682C150.039 49.7682 148.535 48.6002 148.391 46.7282H149.575C149.639 47.9282 150.695 48.7122 152.263 48.7122C153.943 48.7122 155.015 47.8962 155.015 46.5842C155.015 45.5602 154.439 44.8882 153.207 44.6002L151.271 44.1202C149.479 43.6882 148.535 42.6642 148.535 41.0962ZM162.399 49.5762H161.231L165.439 38.1202H166.863L171.119 49.5762H169.919L168.799 46.5362H163.519L162.399 49.5762ZM165.999 39.7362L163.871 45.5282H168.431L166.287 39.7362C166.239 39.5762 166.159 39.3842 166.143 39.2722C166.127 39.3682 166.063 39.5762 165.999 39.7362ZM178.023 49.5762H176.871V38.1202H178.039L184.343 47.6562V38.1202H185.479V49.5762H184.343L178.023 40.0402V49.5762Z" fill="#001A29"></path></svg>